<?xml version="1.0" encoding="utf-8"?>
<!-- Generator: Adobe Illustrator 17.0.0, SVG Export Plug-In . SVG Version: 6.00 Build 0)  -->
<!DOCTYPE svg PUBLIC "-//W3C//DTD SVG 1.1//EN" "http://www.w3.org/Graphics/SVG/1.1/DTD/svg11.dtd">
<svg version="1.1" xmlns="http://www.w3.org/2000/svg" xmlns:xlink="http://www.w3.org/1999/xlink" x="0px" y="0px" width="3360px"
	 height="5040px" viewBox="0 0 3360 5040" enable-background="new 0 0 3360 5040" xml:space="preserve">
<g id="Capa_1" display="none">
	<rect id="Quadrado_transparente_1_" x="420" y="420" display="inline" opacity="0" fill="#4AA5B9" width="420" height="420"/>
	<rect id="Quadrado_transparente_2_" x="840" y="420" display="inline" opacity="0" fill="#4AA5B9" width="420" height="420"/>
	<rect id="Quadrado_transparente" x="0" y="420" display="inline" opacity="0" fill="#4AA5B9" width="420" height="420"/>
	<rect id="Quadrado_transparente_3_" x="1260" y="420" display="inline" opacity="0" fill="#4AA5B9" width="420" height="420"/>
	<rect id="Quadrado_transparente_4_" x="1680" y="420" display="inline" opacity="0" fill="#4AA5B9" width="420" height="420"/>
	<rect id="Quadrado_transparente_5_" x="2100" y="420" display="inline" opacity="0" fill="#4AA5B9" width="420" height="420"/>
	<rect id="Quadrado_transparente_6_" x="2520" y="420" display="inline" opacity="0" fill="#4AA5B9" width="420" height="420"/>
	<rect id="Quadrado_transparente_7_" x="2940" y="420" display="inline" opacity="0" fill="#4AA5B9" width="420" height="420"/>
	<rect id="Quadrado_transparente_8_" x="0" y="840" display="inline" opacity="0" fill="#4AA5B9" width="420" height="420"/>
	<rect id="Quadrado_transparente_9_" x="420" y="840" display="inline" opacity="0" fill="#4AA5B9" width="420" height="420"/>
	
		<rect id="Quadrado_transparente_10_" x="2940" y="839.654" display="inline" opacity="0" fill="#4AA5B9" width="420" height="420"/>
	<rect id="Quadrado_transparente_11_" x="840" y="839.654" display="inline" opacity="0" fill="#4AA5B9" width="420" height="420"/>
	
		<rect id="Quadrado_transparente_12_" x="2520" y="839.654" display="inline" opacity="0" fill="#4AA5B9" width="420" height="420"/>
	
		<rect id="Quadrado_transparente_13_" x="1260" y="839.654" display="inline" opacity="0" fill="#4AA5B9" width="420" height="420"/>
	
		<rect id="Quadrado_transparente_14_" x="2100" y="839.654" display="inline" opacity="0" fill="#4AA5B9" width="420" height="420"/>
	
		<rect id="Quadrado_transparente_15_" x="1680" y="839.654" display="inline" opacity="0" fill="#4AA5B9" width="420" height="420"/>
	
		<rect id="Quadrado_transparente_16_" x="0.181" y="1259.654" display="inline" opacity="0" fill="#4AA5B9" width="420" height="420"/>
	
		<rect id="Quadrado_transparente_17_" x="420" y="1259.654" display="inline" opacity="0" fill="#4AA5B9" width="420" height="420"/>
	
		<rect id="Quadrado_transparente_18_" x="2940" y="1259.654" display="inline" opacity="0" fill="#4AA5B9" width="420" height="420"/>
	
		<rect id="Quadrado_transparente_19_" x="840" y="1259.654" display="inline" opacity="0" fill="#4AA5B9" width="420" height="420"/>
	
		<rect id="Quadrado_transparente_20_" x="2520" y="1259.654" display="inline" opacity="0" fill="#4AA5B9" width="420" height="420"/>
	
		<rect id="Quadrado_transparente_21_" x="2100" y="1259.654" display="inline" opacity="0" fill="#4AA5B9" width="420" height="420"/>
	
		<rect id="Quadrado_transparente_22_" x="1260" y="1259.654" display="inline" opacity="0" fill="#4AA5B9" width="420" height="420"/>
	
		<rect id="Quadrado_transparente_23_" x="1680" y="1259.654" display="inline" opacity="0" fill="#4AA5B9" width="420" height="420"/>
	
		<rect id="Quadrado_transparente_24_" x="0.181" y="1679.654" display="inline" opacity="0" fill="#4AA5B9" width="420" height="420"/>
	
		<rect id="Quadrado_transparente_25_" x="420" y="1679.654" display="inline" opacity="0" fill="#4AA5B9" width="420" height="420"/>
	
		<rect id="Quadrado_transparente_26_" x="2940" y="1679.654" display="inline" opacity="0" fill="#4AA5B9" width="420" height="420"/>
	
		<rect id="Quadrado_transparente_27_" x="840" y="1679.654" display="inline" opacity="0" fill="#4AA5B9" width="420" height="420"/>
	
		<rect id="Quadrado_transparente_28_" x="2520" y="1679.654" display="inline" opacity="0" fill="#4AA5B9" width="420" height="420"/>
	
		<rect id="Quadrado_transparente_29_" x="1260" y="1679.654" display="inline" opacity="0" fill="#4AA5B9" width="420" height="420"/>
	
		<rect id="Quadrado_transparente_30_" x="2100" y="1679.654" display="inline" opacity="0" fill="#4AA5B9" width="420" height="420"/>
	
		<rect id="Quadrado_transparente_31_" x="1680" y="1679.654" display="inline" opacity="0" fill="#4AA5B9" width="420" height="420"/>
	<rect id="Quadrado_transparente_32_" x="0" y="2099.654" display="inline" opacity="0" fill="#4AA5B9" width="420" height="420"/>
	
		<rect id="Quadrado_transparente_33_" x="420" y="2099.654" display="inline" opacity="0" fill="#4AA5B9" width="420" height="420"/>
	
		<rect id="Quadrado_transparente_34_" x="2940" y="2099.654" display="inline" opacity="0" fill="#4AA5B9" width="420" height="420"/>
	
		<rect id="Quadrado_transparente_35_" x="840" y="2099.654" display="inline" opacity="0" fill="#4AA5B9" width="420" height="420"/>
	
		<rect id="Quadrado_transparente_36_" x="2520" y="2099.654" display="inline" opacity="0" fill="#4AA5B9" width="420" height="420"/>
	
		<rect id="Quadrado_transparente_37_" x="1260" y="2099.654" display="inline" opacity="0" fill="#4AA5B9" width="420" height="420"/>
	
		<rect id="Quadrado_transparente_38_" x="2100" y="2099.654" display="inline" opacity="0" fill="#4AA5B9" width="420" height="420"/>
	
		<rect id="Quadrado_transparente_39_" x="1680" y="2099.654" display="inline" opacity="0" fill="#4AA5B9" width="420" height="420"/>
	<rect id="Quadrado_transparente_40_" x="0" y="2519.654" display="inline" opacity="0" fill="#4AA5B9" width="420" height="420"/>
	
		<rect id="Quadrado_transparente_41_" x="420" y="2519.654" display="inline" opacity="0" fill="#4AA5B9" width="420" height="420"/>
	
		<rect id="Quadrado_transparente_42_" x="2940" y="2519.654" display="inline" opacity="0" fill="#4AA5B9" width="420" height="420"/>
	
		<rect id="Quadrado_transparente_43_" x="840" y="2519.654" display="inline" opacity="0" fill="#4AA5B9" width="420" height="420"/>
	
		<rect id="Quadrado_transparente_44_" x="2520" y="2519.654" display="inline" opacity="0" fill="#4AA5B9" width="420" height="420"/>
	
		<rect id="Quadrado_transparente_45_" x="1260" y="2519.654" display="inline" opacity="0" fill="#4AA5B9" width="420" height="420"/>
	
		<rect id="Quadrado_transparente_46_" x="2100" y="2519.654" display="inline" opacity="0" fill="#4AA5B9" width="420" height="420"/>
	
		<rect id="Quadrado_transparente_47_" x="1680" y="2519.654" display="inline" opacity="0" fill="#4AA5B9" width="420" height="420"/>
	<rect id="Quadrado_transparente_55_" x="2940" y="0" display="inline" opacity="0" fill="#4AA5B9" width="420" height="420"/>
	<rect id="Quadrado_transparente_54_" x="2520" display="inline" opacity="0" fill="#4AA5B9" width="420" height="420"/>
	<rect id="Quadrado_transparente_53_" x="0" y="0" display="inline" opacity="0" fill="#4AA5B9" width="420" height="420"/>
	<rect id="Quadrado_transparente_52_" x="2100" display="inline" opacity="0" fill="#4AA5B9" width="420" height="420"/>
	<rect id="Quadrado_transparente_51_" x="420" y="0" display="inline" opacity="0" fill="#4AA5B9" width="420" height="420"/>
	<rect id="Quadrado_transparente_50_" x="1680" display="inline" opacity="0" fill="#4AA5B9" width="420" height="420"/>
	<rect id="Quadrado_transparente_49_" x="840" y="0" display="inline" opacity="0" fill="#4AA5B9" width="420" height="420"/>
	<rect id="Quadrado_transparente_48_" x="1260" display="inline" opacity="0" fill="#4AA5B9" width="420" height="420"/>
	
		<rect id="Quadrado_transparente_63_" x="2520" y="2939.654" display="inline" opacity="0" fill="#4AA5B9" width="420" height="420"/>
	
		<rect id="Quadrado_transparente_62_" x="2100" y="2939.654" display="inline" opacity="0" fill="#4AA5B9" width="420" height="420"/>
	
		<rect id="Quadrado_transparente_61_" x="2940" y="2939.654" display="inline" opacity="0" fill="#4AA5B9" width="420" height="420"/>
	
		<rect id="Quadrado_transparente_60_" x="1680" y="2939.654" display="inline" opacity="0" fill="#4AA5B9" width="420" height="420"/>
	
		<rect id="Quadrado_transparente_59_" x="1260" y="2939.654" display="inline" opacity="0" fill="#4AA5B9" width="420" height="420"/>
	
		<rect id="Quadrado_transparente_58_" x="840" y="2939.654" display="inline" opacity="0" fill="#4AA5B9" width="420" height="420"/>
	
		<rect id="Quadrado_transparente_57_" x="420" y="2939.654" display="inline" opacity="0" fill="#4AA5B9" width="420" height="420"/>
	<rect id="Quadrado_transparente_56_" y="2939.654" display="inline" opacity="0" fill="#4AA5B9" width="420" height="420"/>
	
		<rect id="Quadrado_transparente_71_" x="2940" y="3359.654" display="inline" opacity="0" fill="#4AA5B9" width="420" height="420"/>
	
		<rect id="Quadrado_transparente_70_" x="2520" y="3359.654" display="inline" opacity="0" fill="#4AA5B9" width="420" height="420"/>
	<rect id="Quadrado_transparente_69_" x="0" y="3360" display="inline" opacity="0" fill="#4AA5B9" width="420" height="420"/>
	<rect id="Quadrado_transparente_68_" x="2100" y="3360" display="inline" opacity="0" fill="#4AA5B9" width="420" height="420"/>
	<rect id="Quadrado_transparente_67_" x="420" y="3360" display="inline" opacity="0" fill="#4AA5B9" width="420" height="420"/>
	<rect id="Quadrado_transparente_66_" x="1680" y="3360" display="inline" opacity="0" fill="#4AA5B9" width="420" height="420"/>
	<rect id="Quadrado_transparente_65_" x="840" y="3360" display="inline" opacity="0" fill="#4AA5B9" width="420" height="420"/>
	<rect id="Quadrado_transparente_64_" x="1260" y="3360" display="inline" opacity="0" fill="#4AA5B9" width="420" height="420"/>
	
		<rect id="Quadrado_transparente_79_" x="2939.819" y="3780" display="inline" opacity="0" fill="#4AA5B9" width="420" height="420"/>
	<rect id="Quadrado_transparente_78_" x="2520" y="3780" display="inline" opacity="0" fill="#4AA5B9" width="420" height="420"/>
	<rect id="Quadrado_transparente_77_" y="3780" display="inline" opacity="0" fill="#4AA5B9" width="420" height="420"/>
	<rect id="Quadrado_transparente_76_" x="2100" y="3780" display="inline" opacity="0" fill="#4AA5B9" width="420" height="420"/>
	<rect id="Quadrado_transparente_75_" x="420" y="3780" display="inline" opacity="0" fill="#4AA5B9" width="420" height="420"/>
	<rect id="Quadrado_transparente_74_" x="840" y="3780" display="inline" opacity="0" fill="#4AA5B9" width="420" height="420"/>
	<rect id="Quadrado_transparente_73_" x="1680" y="3780" display="inline" opacity="0" fill="#4AA5B9" width="420" height="420"/>
	<rect id="Quadrado_transparente_72_" x="1260" y="3780" display="inline" opacity="0" fill="#4AA5B9" width="420" height="420"/>
	
		<rect id="Quadrado_transparente_87_" x="2939.819" y="4200" display="inline" opacity="0" fill="#4AA5B9" width="420" height="420"/>
	<rect id="Quadrado_transparente_86_" x="2520" y="4200" display="inline" opacity="0" fill="#4AA5B9" width="420" height="420"/>
	<rect id="Quadrado_transparente_85_" x="0" y="4200" display="inline" opacity="0" fill="#4AA5B9" width="420" height="420"/>
	<rect id="Quadrado_transparente_84_" x="2100" y="4200" display="inline" opacity="0" fill="#4AA5B9" width="420" height="420"/>
	<rect id="Quadrado_transparente_83_" x="420" y="4200" display="inline" opacity="0" fill="#4AA5B9" width="420" height="420"/>
	<rect id="Quadrado_transparente_82_" x="1680" y="4200" display="inline" opacity="0" fill="#4AA5B9" width="420" height="420"/>
	<rect id="Quadrado_transparente_81_" x="840" y="4200" display="inline" opacity="0" fill="#4AA5B9" width="420" height="420"/>
	<rect id="Quadrado_transparente_80_" x="1260" y="4200" display="inline" opacity="0" fill="#4AA5B9" width="420" height="420"/>
	
		<rect id="Quadrado_transparente_95_" x="2939.819" y="4620" display="inline" opacity="0" fill="#4AA5B9" width="420" height="420"/>
	
		<rect id="Quadrado_transparente_94_" x="2519.819" y="4620" display="inline" opacity="0" fill="#4AA5B9" width="420" height="420"/>
	<rect id="Quadrado_transparente_93_" x="-0.181" y="4620" display="inline" opacity="0" fill="#4AA5B9" width="420" height="420"/>
	
		<rect id="Quadrado_transparente_92_" x="2099.819" y="4620" display="inline" opacity="0" fill="#4AA5B9" width="420" height="420"/>
	
		<rect id="Quadrado_transparente_91_" x="419.819" y="4620" display="inline" opacity="0" fill="#4AA5B9" width="420" height="420"/>
	
		<rect id="Quadrado_transparente_90_" x="1679.819" y="4620" display="inline" opacity="0" fill="#4AA5B9" width="420" height="420"/>
	
		<rect id="Quadrado_transparente_89_" x="839.819" y="4620" display="inline" opacity="0" fill="#4AA5B9" width="420" height="420"/>
	
		<rect id="Quadrado_transparente_88_" x="1259.819" y="4620" display="inline" opacity="0" fill="#4AA5B9" width="420" height="420"/>
</g>
<g id="Capa_2">
	<path id="_x32_._Cola_25_" fill="#19FFFC" d="M647.12,607.224c0,0,16.098-35.62,15.01-86.739
		c-0.77-36.167,10.564-73.723,10.564-73.723s-17.96,31.04-17.832,76.766c-2.159,48.429-21.335,78.578-21.335,78.578"/>
	<path id="_x33_._Cola_25_" fill="#19FFFC" d="M1067.58,608.097c11.983-77.193,49.862-91.696,59.68-96.328
		c3.937-1.857,8.411-4.351,11.166-6.469c7.318-5.626,20.764-12.218,15.161-27.498c0,0,4.878,16.565-32.23,30.866
		c-35.517,13.688-42.764,36.068-67.831,94.183"/>
	<path id="_x31_._Cola_13_" fill="#19FFFC" d="M223.878,611.292c0,0,8.249,5.663,14.597-74.588
		c6.368-80.5,37.88-77.243,37.88-77.243s-20.3-4.077-36.833,34.877c-11.374,26.8-7.788,45.884-12.725,69.185
		c-9.654,45.568-18.077,39.966-16.403,39.449"/>
	<path id="_x34_._Cola_25_" fill="#19FFFC" d="M1487.864,605.274c0,0,19.54-74.053,74.553-81.191
		c53.642-6.96,51.079-32.017,51.079-32.017s-5.04,20.994-56.905,27.52c-40.751,5.128-53.524,29.084-82.255,80.323"/>
	<path id="_x35_._Cola_12_" fill="#19FFFC" d="M1907.58,608.097c0,0-1.231-10.325,17.953-26.817
		c30.354-26.094,74.085-51.178,64.767-107.075c0,0-0.011,12.579-2.659,23.724c-3.082,12.973-4.245,29.537-45.085,58.782
		c-28.262,20.238-45.868,38.052-49.03,44.583"/>
	<path id="_x34_._Cola_24_" fill="#19FFFC" d="M2327.864,605.274c0,0,19.54-74.053,74.553-81.191
		c53.642-6.96,51.079-32.017,51.079-32.017s-5.04,20.994-56.905,27.52c-40.751,5.128-53.524,29.084-82.255,80.323"/>
	<path id="_x33_._Cola_24_" fill="#19FFFC" d="M2747.58,608.097c11.983-77.193,49.862-91.696,59.68-96.328
		c3.937-1.857,8.411-4.351,11.166-6.469c7.318-5.626,20.764-12.218,15.161-27.498c0,0,4.878,16.565-32.23,30.866
		c-35.517,13.688-42.764,36.068-67.83,94.183"/>
	<path id="_x32_._Cola_24_" fill="#19FFFC" d="M3167.12,607.224c0,0,16.098-35.62,15.01-86.739
		c-0.77-36.167,10.564-73.723,10.564-73.723s-17.96,31.04-17.832,76.766c-2.159,48.429-21.335,78.578-21.335,78.578"/>
	<path id="_x31_._Cola_12_" fill="#19FFFC" d="M234.686,1042.495c0,0,4.639,8.865,47.811-59.081
		c43.306-68.158,69.629-50.529,69.629-50.529s-16.031-13.104-48.873,13.581c-22.595,18.359-28.359,36.902-43.628,55.183
		c-29.86,35.75-34.681,26.857-32.96,27.183"/>
	<path id="_x32_._Cola_23_" fill="#19FFFC" d="M659.455,1040.418c0,0,30.898-23.943,53.863-69.626
		c16.248-32.321,43.842-60.205,43.842-60.205s-30.4,19.023-51.689,59.492c-24.576,41.786-55.633,59.454-55.633,59.454"/>
	<path id="_x32_._Cola_22_" fill="#19FFFC" d="M3179.455,1040.071c0,0,30.898-23.943,53.863-69.625
		c16.248-32.321,43.842-60.205,43.842-60.205s-30.4,19.023-51.689,59.492c-24.576,41.786-55.633,59.454-55.633,59.454"/>
	<path id="_x33_._Cola_23_" fill="#19FFFC" d="M1079.453,1041.058c46.721-62.607,86.982-57.693,97.826-57.191
		c4.348,0.201,9.469,0.092,12.895-0.49c9.1-1.547,24.068-1.078,26.269-17.204c0,0-3.443,16.921-42.928,12.191
		c-37.793-4.528-54.673,11.857-104.025,51.481"/>
	<path id="_x33_._Cola_22_" fill="#19FFFC" d="M2759.452,1041.058c46.721-62.607,86.982-57.693,97.827-57.191
		c4.348,0.201,9.469,0.092,12.895-0.49c9.1-1.547,24.068-1.078,26.269-17.204c0,0-3.443,16.921-42.928,12.191
		c-37.793-4.528-54.673,11.857-104.025,51.481"/>
	<path id="_x34_._Cola_23_" fill="#19FFFC" d="M1501.025,1038.696c0,0,51.929-56.294,103.884-36.853
		c50.661,18.957,60.124-4.385,60.124-4.385s-14.28,16.193-63.168-2.315c-38.412-14.542-60.912,0.649-110.284,32.481"/>
	<path id="_x34_._Cola_22_" fill="#19FFFC" d="M2341.025,1038.696c0,0,51.929-56.294,103.884-36.853
		c50.662,18.957,60.124-4.385,60.124-4.385s-14.28,16.193-63.168-2.315c-38.412-14.542-60.912,0.649-110.284,32.481"/>
	<path id="_x35_._Cola_11_" fill="#19FFFC" d="M1919.453,1041.058c0,0,3.745-9.7,28.417-15.295
		c39.037-8.852,89.423-10.55,107.352-64.308c0,0-5.897,11.111-13.454,19.721c-8.796,10.021-17.576,24.115-67.355,30.843
		c-34.448,4.656-58.344,12.158-64.195,16.449"/>
	<path id="_x31_._Cola_11_" fill="#19FFFC" d="M234.79,1472.897c0,0-1.288,9.922,73.059-20.951
		c74.577-30.969,86.019-1.426,86.019-1.426s-5.609-19.931-47.819-16.923c-29.04,2.069-44.401,13.949-67.396,20.158
		c-44.969,12.143-43.814,2.094-42.592,3.349"/>
	<path id="_x32_._Cola_21_" fill="#19FFFC" d="M659.706,1477.031c0,0,39.043-1.878,84.066-26.113
		c31.854-17.146,70.453-24.148,70.453-24.148s-35.813-1.865-76.47,19.061c-44.105,20.12-79.678,16.767-79.678,16.767"/>
	<path id="_x32_._Cola_20_" fill="#19FFFC" d="M3179.707,1477.031c0,0,39.043-1.878,84.066-26.113
		c31.854-17.146,70.453-24.148,70.453-24.148s-35.813-1.865-76.47,19.061c-44.105,20.119-79.678,16.767-79.678,16.767"/>
	<path id="_x33_._Cola_21_" fill="#19FFFC" d="M1079.139,1477.838c74.189-24.463,104.342,2.664,112.935,9.298
		c3.446,2.66,7.702,5.509,10.842,6.998c8.341,3.955,20.329,12.928,31.386,0.984c0,0-12.529,11.883-42.152-14.65
		c-28.354-25.395-51.579-21.662-114.735-17.532"/>
	<path id="_x33_._Cola_20_" fill="#19FFFC" d="M2759.138,1477.838c74.189-24.463,104.342,2.664,112.935,9.298
		c3.446,2.66,7.702,5.509,10.842,6.998c8.341,3.955,20.33,12.928,31.386,0.984c0,0-12.53,11.883-42.153-14.65
		c-28.354-25.395-51.58-21.662-114.735-17.532"/>
	<path id="_x34_._Cola_21_" fill="#19FFFC" d="M2341.781,1476.806c0,0,74.832-16.305,106.226,29.43
		c30.612,44.596,51.756,30.91,51.756,30.91s-20.987,5.067-50.404-38.144c-23.114-33.952-50.258-34.422-108.958-36.684"/>
	<path id="_x34_._Cola_20_" fill="#19FFFC" d="M1501.782,1476.806c0,0,74.832-16.305,106.226,29.43
		c30.612,44.596,51.756,30.91,51.756,30.91s-20.987,5.067-50.404-38.144c-23.114-33.952-50.257-34.422-108.958-36.684"/>
	<path id="_x35_._Cola_10_" fill="#19FFFC" d="M1919.139,1477.838c0,0,8.633-5.795,32.049,3.781
		c37.05,15.152,79.289,42.674,124.82,8.936c0,0-11.206,5.715-22.335,8.43c-12.954,3.16-28.233,9.664-72.86-13.391
		c-30.883-15.955-54.759-23.523-62.013-23.366"/>
	<path id="_x31_._Cola_10_" fill="#19FFFC" d="M228.464,1906.205c0,0-6.058,7.963,73.788,18.214
		c80.094,10.282,75.305,41.599,75.305,41.599s5.061-20.077-33.041-38.488c-26.214-12.667-45.45-10.015-68.483-16.081
		c-45.044-11.863-39.038-20.003-38.603-18.306"/>
	<path id="_x32_._Cola_19_" fill="#19FFFC" d="M652.188,1909.641c0,0,34.793,17.814,85.905,19.219
		c36.161,0.994,73.121,14.144,73.121,14.144s-30.128-19.451-75.806-21.551c-48.267-4.516-77.445-25.138-77.445-25.138"/>
	<path id="_x32_._Cola_18_" fill="#19FFFC" d="M3172.188,1909.641c0,0,34.793,17.814,85.905,19.219
		c36.162,0.994,73.121,14.144,73.121,14.144s-30.128-19.451-75.806-21.551c-48.267-4.516-77.446-25.139-77.446-25.139"/>
	<path id="_x33_._Cola_19_" fill="#19FFFC" d="M1071.293,1910.058c76.518,15.73,89.157,54.271,93.306,64.303
		c1.663,4.023,3.936,8.613,5.917,11.468c5.263,7.583,11.192,21.335,26.727,16.483c0,0-16.783,4.065-29.259-33.695
		c-11.941-36.142-33.942-44.471-90.766-72.339"/>
	<path id="_x33_._Cola_18_" fill="#19FFFC" d="M2751.293,1910.058c76.518,15.73,89.157,54.271,93.306,64.303
		c1.663,4.023,3.936,8.613,5.917,11.468c5.263,7.583,11.192,21.335,26.727,16.483c0,0-16.783,4.065-29.259-33.695
		c-11.941-36.142-33.942-44.471-90.766-72.339"/>
	<path id="_x34_._Cola_19_" fill="#19FFFC" d="M1494.099,1910.48c0,0,73.013,23.125,77.462,78.42
		c4.339,53.918,29.49,52.578,29.49,52.578s-20.723-6.057-24.715-58.178c-3.136-40.953-26.441-54.877-76.219-86.071"/>
	<path id="_x34_._Cola_18_" fill="#19FFFC" d="M2334.099,1910.479c0,0,73.013,23.125,77.462,78.42
		c4.338,53.918,29.49,52.578,29.49,52.578s-20.723-6.057-24.715-58.179c-3.136-40.953-26.441-54.877-76.219-86.071"/>
	<path id="_x35_._Cola_9_" fill="#19FFFC" d="M1911.293,1910.058c0,0,10.373-0.727,25.91,19.239
		c24.584,31.589,47.508,76.49,103.792,69.907c0,0-12.563-0.624-23.566-3.812c-12.807-3.711-29.296-5.679-56.515-47.896
		c-18.836-29.215-35.772-47.667-42.141-51.144"/>
	<path id="_x31_._Cola_9_" fill="#19FFFC" d="M216.307,2330.036c0,0-9.076,4.212,56.744,50.563
		c66.023,46.495,47.164,71.951,47.164,71.951s13.851-15.39-11.244-49.463c-17.265-23.442-35.513-30.08-53.048-46.2
		c-34.291-31.525-25.179-35.917-25.587-34.214"/>
	<path id="_x32_._Cola_17_" fill="#19FFFC" d="M638.155,2334.899c0,0,22.448,32,66.988,57.11
		c31.512,17.765,58.054,46.653,58.054,46.653s-17.558-31.269-56.969-54.457c-40.572-26.533-56.744-58.395-56.744-58.395"/>
	<path id="_x32_._Cola_16_" fill="#19FFFC" d="M3158.156,2334.899c0,0,22.448,32,66.988,57.11
		c31.512,17.765,58.054,46.653,58.054,46.653s-17.558-31.269-56.969-54.457c-40.572-26.533-56.743-58.394-56.743-58.394"/>
	<path id="_x33_._Cola_17_" fill="#19FFFC" d="M1057.17,2334.85c60.317,49.642,53.496,89.624,52.479,100.433
		c-0.408,4.334-0.542,9.454-0.123,12.904c1.113,9.164-0.066,24.092,15.937,27.056c0,0-16.739-4.242-10.138-43.459
		c6.318-37.536-9.247-55.174-46.481-106.353"/>
	<path id="_x33_._Cola_16_" fill="#19FFFC" d="M2737.17,2334.85c60.316,49.642,53.496,89.624,52.479,100.433
		c-0.408,4.334-0.542,9.454-0.123,12.904c1.113,9.164-0.066,24.092,15.937,27.056c0,0-16.739-4.242-10.138-43.459
		c6.318-37.536-9.247-55.174-46.481-106.353"/>
	<path id="_x34_._Cola_17_" fill="#19FFFC" d="M1479.454,2336.533c0,0,53.764,54.544,31.877,105.518
		c-21.342,49.704,1.524,60.264,1.524,60.264s-15.496-15.033,5.313-62.987c16.351-37.678,2.245-60.874-27.205-111.703"/>
	<path id="_x34_._Cola_16_" fill="#19FFFC" d="M2319.454,2336.533c0,0,53.764,54.544,31.877,105.518
		c-21.342,49.704,1.524,60.264,1.524,60.264s-15.496-15.033,5.313-62.987c16.351-37.678,2.245-60.874-27.205-111.703"/>
	<path id="_x35_._Cola_8_" fill="#19FFFC" d="M1897.17,2334.85c0,0,9.511,4.201,13.928,29.112
		c6.987,39.414,6.29,89.823,59.135,110.286c0,0-10.818-6.418-19.059-14.375c-9.592-9.262-23.253-18.702-27.608-68.744
		c-3.014-34.63-9.373-58.855-13.381-64.904"/>
	<path id="_x31_._Cola_8_" fill="#19FFFC" d="M204.227,2754.508c0,0-9.929-1.238,21.323,72.951
		c31.349,74.418,1.865,86.011,1.865,86.011s19.902-5.711,16.678-47.905c-2.218-29.029-14.175-44.329-20.502-67.292
		c-12.373-44.906-2.317-43.802-3.566-42.574"/>
	<path id="_x32_._Cola_15_" fill="#19FFFC" d="M623.217,2759.611c0,0,2.077,39.033,26.541,83.932
		c17.308,31.766,24.507,70.329,24.507,70.329s1.682-35.822-19.451-76.372c-20.344-44.002-17.173-79.592-17.173-79.592"/>
	<path id="_x32_._Cola_14_" fill="#19FFFC" d="M3143.217,2759.611c0,0,2.077,39.033,26.541,83.931
		c17.308,31.766,24.507,70.329,24.507,70.329s1.682-35.822-19.451-76.372c-20.344-44.002-17.173-79.592-17.173-79.592"/>
	<path id="_x33_._Cola_15_" fill="#19FFFC" d="M1042.407,2759.047c24.841,74.063-2.132,104.354-8.722,112.981
		c-2.642,3.459-5.47,7.73-6.943,10.877c-3.913,8.361-12.824,20.395-0.824,31.39c0,0-11.946-12.469,14.434-42.227
		c25.25-28.483,21.399-51.689,16.946-114.823"/>
	<path id="_x33_._Cola_14_" fill="#19FFFC" d="M2722.407,2759.047c24.842,74.063-2.132,104.354-8.722,112.981
		c-2.642,3.459-5.469,7.73-6.942,10.877c-3.913,8.361-12.824,20.395-0.824,31.39c0,0-11.946-12.469,14.435-42.227
		c25.25-28.483,21.399-51.689,16.946-114.823"/>
	<path id="_x34_._Cola_15_" fill="#19FFFC" d="M1463.453,2761.685c0,0,16.687,74.748-28.888,106.375
		c-44.439,30.84-30.645,51.913-30.645,51.913s-5.174-20.961,37.886-50.598c33.834-23.286,34.165-50.432,36.128-109.144"/>
	<path id="_x34_._Cola_14_" fill="#19FFFC" d="M2303.453,2761.685c0,0,16.687,74.748-28.888,106.375
		c-44.439,30.839-30.645,51.913-30.645,51.913s-5.174-20.961,37.886-50.598c33.834-23.287,34.165-50.432,36.128-109.144"/>
	<path id="_x35_._Cola_7_" fill="#19FFFC" d="M1882.407,2759.047c0,0,5.839,8.603-3.617,32.068
		c-14.962,37.126-42.268,79.506-8.299,124.864c0,0-5.773-11.176-8.544-22.291c-3.226-12.938-9.808-28.183,13.019-72.928
		c15.797-30.964,23.243-54.878,23.049-62.131"/>
	<path id="_x31_._Cola_7_" fill="#19FFFC" d="M3155.773,185.146c0,0,9.929,1.238-21.323-72.951
		c-31.349-74.418-1.865-86.011-1.865-86.011s-19.902,5.711-16.678,47.905c2.218,29.029,14.175,44.329,20.502,67.292
		c12.373,44.906,2.317,43.803,3.566,42.574"/>
	<path id="_x32_._Cola_13_" fill="#19FFFC" d="M2736.783,180.043c0,0-2.077-39.033-26.542-83.932
		c-17.308-31.766-24.507-70.329-24.507-70.329s-1.682,35.822,19.451,76.372c20.344,44.002,17.173,79.592,17.173,79.592"/>
	<path id="_x32_._Cola_12_" fill="#19FFFC" d="M216.783,180.043c0,0-2.077-39.033-26.541-83.932
		c-17.308-31.766-24.507-70.329-24.507-70.329s-1.682,35.822,19.451,76.372c20.344,44.002,17.173,79.592,17.173,79.592"/>
	<path id="_x33_._Cola_13_" fill="#19FFFC" d="M2317.593,180.607c-24.841-74.063,2.132-104.354,8.722-112.981
		c2.642-3.459,5.47-7.73,6.942-10.877c3.913-8.361,12.824-20.395,0.824-31.39c0,0,11.946,12.469-14.435,42.227
		c-25.25,28.483-21.399,51.689-16.946,114.823"/>
	<path id="_x33_._Cola_12_" fill="#19FFFC" d="M637.593,180.607c-24.841-74.063,2.132-104.354,8.722-112.981
		c2.642-3.459,5.47-7.73,6.943-10.877c3.913-8.361,12.824-20.395,0.824-31.39c0,0,11.946,12.469-14.435,42.227
		c-25.25,28.483-21.399,51.689-16.946,114.823"/>
	<path id="_x34_._Cola_13_" fill="#19FFFC" d="M1896.547,177.969c0,0-16.687-74.748,28.888-106.375
		c44.439-30.839,30.645-51.913,30.645-51.913s5.174,20.961-37.886,50.598c-33.834,23.287-34.165,50.432-36.128,109.144"/>
	<path id="_x34_._Cola_12_" fill="#19FFFC" d="M1056.547,177.969c0,0-16.687-74.748,28.888-106.375
		c44.439-30.839,30.645-51.913,30.645-51.913s5.174,20.961-37.886,50.598c-33.834,23.287-34.165,50.432-36.128,109.144"/>
	<path id="_x35_._Cola_6_" fill="#19FFFC" d="M1477.593,180.607c0,0-5.839-8.603,3.617-32.068
		c14.962-37.127,42.268-79.506,8.299-124.864c0,0,5.773,11.176,8.544,22.291c3.226,12.938,9.808,28.183-13.019,72.928
		c-15.797,30.964-23.243,54.878-23.049,62.131"/>
	<path id="_x32_._Cola_2_" fill="#19FFFC" d="M2712.88,3172.429c0,0-16.098,35.62-15.01,86.739
		c0.77,36.167-10.564,73.723-10.564,73.723s17.96-31.04,17.832-76.766c2.159-48.429,21.335-78.578,21.335-78.578"/>
	<path id="_x33_._Cola_2_" fill="#19FFFC" d="M2292.42,3171.557c-11.983,77.193-49.862,91.696-59.68,96.328
		c-3.937,1.857-8.411,4.351-11.166,6.469c-7.318,5.626-20.764,12.218-15.161,27.498c0,0-4.878-16.564,32.229-30.866
		c35.517-13.688,42.764-36.068,67.831-94.183"/>
	<path id="_x31_._Cola_1_" fill="#19FFFC" d="M3136.122,3168.362c0,0-8.249-5.663-14.597,74.588
		c-6.368,80.5-37.881,77.243-37.881,77.243s20.3,4.077,36.833-34.877c11.375-26.8,7.788-45.884,12.725-69.185
		c9.654-45.568,18.077-39.966,16.403-39.449"/>
	<path id="_x34_._Cola_2_" fill="#19FFFC" d="M1872.136,3174.38c0,0-19.54,74.053-74.553,81.191
		c-53.642,6.96-51.079,32.017-51.079,32.017s5.04-20.994,56.905-27.52c40.751-5.128,53.524-29.084,82.255-80.323"/>
	<path id="_x35_._Cola_1_" fill="#19FFFC" d="M1452.42,3171.557c0,0,1.231,10.325-17.953,26.817
		c-30.354,26.094-74.085,51.178-64.767,107.075c0,0,0.011-12.579,2.659-23.724c3.082-12.972,4.245-29.537,45.085-58.781
		c28.262-20.238,45.868-38.052,49.03-44.583"/>
	<path id="_x34_._Cola_1_" fill="#19FFFC" d="M1032.136,3174.38c0,0-19.54,74.053-74.553,81.191
		c-53.642,6.96-51.079,32.017-51.079,32.017s5.04-20.994,56.905-27.52c40.751-5.128,53.524-29.084,82.255-80.323"/>
	<path id="_x33_._Cola_1_" fill="#19FFFC" d="M612.42,3171.557c-11.983,77.193-49.862,91.696-59.68,96.328
		c-3.937,1.857-8.411,4.351-11.166,6.469c-7.318,5.626-20.764,12.218-15.161,27.498c0,0-4.878-16.564,32.23-30.866
		c35.517-13.688,42.764-36.068,67.831-94.183"/>
	<path id="_x32_._Cola_1_" fill="#19FFFC" d="M192.88,3172.429c0,0-16.098,35.62-15.01,86.739
		c0.77,36.167-10.564,73.723-10.564,73.723s17.96-31.04,17.832-76.766c2.159-48.429,21.335-78.578,21.335-78.578"/>
	<path id="_x31_._Cola_2_" fill="#19FFFC" d="M3125.314,3577.159c0,0-4.639-8.866-47.811,59.081
		c-43.306,68.158-69.629,50.529-69.629,50.529s16.031,13.104,48.873-13.581c22.595-18.359,28.359-36.902,43.627-55.183
		c29.86-35.75,34.681-26.857,32.96-27.184"/>
	<path id="_x32_._Cola_4_" fill="#19FFFC" d="M2700.545,3579.236c0,0-30.898,23.943-53.863,69.625
		c-16.248,32.321-43.842,60.205-43.842,60.205s30.4-19.023,51.689-59.492c24.576-41.786,55.633-59.453,55.633-59.453"/>
	<path id="_x32_._Cola_3_" fill="#19FFFC" d="M180.545,3579.583c0,0-30.898,23.943-53.863,69.625
		c-16.248,32.321-43.842,60.205-43.842,60.205s30.4-19.023,51.689-59.492c24.576-41.786,55.633-59.454,55.633-59.454"/>
	<path id="_x33_._Cola_4_" fill="#19FFFC" d="M2280.547,3578.596c-46.72,62.607-86.982,57.693-97.826,57.191
		c-4.348-0.201-9.469-0.092-12.895,0.49c-9.1,1.547-24.068,1.078-26.269,17.204c0,0,3.443-16.921,42.928-12.191
		c37.793,4.528,54.673-11.857,104.025-51.481"/>
	<path id="_x33_._Cola_3_" fill="#19FFFC" d="M600.547,3578.596c-46.721,62.607-86.982,57.693-97.826,57.191
		c-4.348-0.201-9.469-0.092-12.895,0.49c-9.1,1.547-24.068,1.078-26.269,17.204c0,0,3.443-16.921,42.928-12.191
		c37.793,4.528,54.673-11.857,104.025-51.481"/>
	<path id="_x34_._Cola_4_" fill="#19FFFC" d="M1858.975,3580.958c0,0-51.929,56.294-103.884,36.854
		c-50.661-18.957-60.124,4.385-60.124,4.385s14.28-16.193,63.168,2.315c38.412,14.542,60.912-0.649,110.284-32.481"/>
	<path id="_x34_._Cola_3_" fill="#19FFFC" d="M1018.975,3580.958c0,0-51.929,56.294-103.884,36.854
		c-50.661-18.957-60.124,4.385-60.124,4.385s14.28-16.193,63.168,2.315c38.412,14.542,60.912-0.649,110.284-32.481"/>
	<path id="_x35_._Cola_2_" fill="#19FFFC" d="M1440.547,3578.596c0,0-3.745,9.7-28.417,15.295
		c-39.037,8.852-89.423,10.55-107.352,64.308c0,0,5.897-11.111,13.454-19.72c8.796-10.021,17.576-24.115,67.355-30.843
		c34.448-4.656,58.344-12.158,64.195-16.449"/>
	<path id="_x31_._Cola_3_" fill="#19FFFC" d="M3125.21,3986.757c0,0,1.288-9.922-73.059,20.951
		c-74.577,30.969-86.019,1.426-86.019,1.426s5.609,19.931,47.819,16.923c29.04-2.069,44.401-13.948,67.396-20.158
		c44.969-12.143,43.814-2.094,42.592-3.349"/>
	<path id="_x32_._Cola_6_" fill="#19FFFC" d="M2700.293,3982.623c0,0-39.043,1.878-84.066,26.113
		c-31.854,17.146-70.453,24.147-70.453,24.147s35.813,1.865,76.47-19.061c44.105-20.119,79.678-16.767,79.678-16.767"/>
	<path id="_x32_._Cola_5_" fill="#19FFFC" d="M180.294,3982.623c0,0-39.043,1.878-84.066,26.113
		c-31.854,17.146-70.453,24.147-70.453,24.147s35.813,1.865,76.47-19.061c44.105-20.119,79.678-16.767,79.678-16.767"/>
	<path id="_x33_._Cola_6_" fill="#19FFFC" d="M2280.861,3981.816c-74.189,24.463-104.342-2.664-112.935-9.298
		c-3.446-2.66-7.702-5.509-10.842-6.998c-8.341-3.955-20.33-12.928-31.386-0.985c0,0,12.53-11.883,42.153,14.65
		c28.354,25.395,51.58,21.662,114.735,17.532"/>
	<path id="_x33_._Cola_5_" fill="#19FFFC" d="M600.861,3981.816c-74.189,24.463-104.342-2.664-112.935-9.298
		c-3.446-2.66-7.702-5.509-10.842-6.998c-8.341-3.955-20.33-12.928-31.386-0.985c0,0,12.529-11.883,42.153,14.65
		c28.353,25.395,51.579,21.662,114.735,17.532"/>
	<path id="_x34_._Cola_6_" fill="#19FFFC" d="M1018.218,3982.848c0,0-74.832,16.305-106.226-29.43
		c-30.612-44.596-51.756-30.91-51.756-30.91s20.987-5.067,50.404,38.144c23.114,33.952,50.257,34.422,108.958,36.684"/>
	<path id="_x34_._Cola_5_" fill="#19FFFC" d="M1858.218,3982.848c0,0-74.832,16.305-106.226-29.43
		c-30.612-44.596-51.756-30.91-51.756-30.91s20.987-5.067,50.404,38.144c23.114,33.952,50.257,34.422,108.958,36.684"/>
	<path id="_x35_._Cola_3_" fill="#19FFFC" d="M1440.861,3981.816c0,0-8.633,5.795-32.05-3.781
		c-37.05-15.152-79.289-42.674-124.82-8.936c0,0,11.205-5.715,22.335-8.43c12.954-3.16,28.233-9.664,72.86,13.391
		c30.883,15.955,54.759,23.523,62.013,23.365"/>
	<path id="_x31_._Cola_4_" fill="#19FFFC" d="M3131.536,4393.449c0,0,6.059-7.963-73.788-18.214
		c-80.094-10.282-75.305-41.599-75.305-41.599s-5.061,20.077,33.041,38.488c26.214,12.667,45.45,10.015,68.483,16.081
		c45.044,11.863,39.038,20.002,38.603,18.306"/>
	<path id="_x32_._Cola_8_" fill="#19FFFC" d="M2707.812,4390.013c0,0-34.793-17.814-85.905-19.219
		c-36.161-0.994-73.121-14.144-73.121-14.144s30.128,19.451,75.806,21.551c48.267,4.516,77.446,25.138,77.446,25.138"/>
	<path id="_x32_._Cola_7_" fill="#19FFFC" d="M187.812,4390.013c0,0-34.793-17.814-85.905-19.219
		c-36.161-0.994-73.121-14.144-73.121-14.144s30.128,19.451,75.806,21.551c48.267,4.516,77.445,25.138,77.445,25.138"/>
	<path id="_x33_._Cola_8_" fill="#19FFFC" d="M2288.707,4389.596c-76.518-15.73-89.157-54.271-93.306-64.303
		c-1.663-4.022-3.936-8.613-5.917-11.467c-5.263-7.583-11.192-21.335-26.727-16.483c0,0,16.783-4.065,29.259,33.695
		c11.941,36.142,33.942,44.471,90.766,72.339"/>
	<path id="_x33_._Cola_7_" fill="#19FFFC" d="M608.707,4389.596c-76.518-15.73-89.158-54.271-93.306-64.303
		c-1.663-4.023-3.936-8.613-5.917-11.468c-5.263-7.583-11.192-21.334-26.727-16.483c0,0,16.783-4.065,29.259,33.695
		c11.941,36.142,33.942,44.471,90.766,72.339"/>
	<path id="_x34_._Cola_8_" fill="#19FFFC" d="M1865.901,4389.174c0,0-73.013-23.125-77.462-78.42
		c-4.338-53.918-29.49-52.579-29.49-52.579s20.723,6.057,24.715,58.179c3.136,40.953,26.441,54.877,76.219,86.071"/>
	<path id="_x34_._Cola_7_" fill="#19FFFC" d="M1025.901,4389.174c0,0-73.013-23.125-77.462-78.42
		c-4.339-53.918-29.49-52.578-29.49-52.578s20.723,6.057,24.715,58.178c3.136,40.953,26.441,54.877,76.219,86.071"/>
	<path id="_x35_._Cola_4_" fill="#19FFFC" d="M1448.707,4389.596c0,0-10.373,0.727-25.91-19.239
		c-24.584-31.589-47.508-76.49-103.792-69.907c0,0,12.563,0.624,23.566,3.812c12.807,3.71,29.296,5.679,56.515,47.896
		c18.836,29.215,35.772,47.667,42.141,51.144"/>
	<path id="_x31_._Cola_5_" fill="#19FFFC" d="M3143.512,4809.618c0,0,9.076-4.212-56.743-50.563
		c-66.023-46.495-47.164-71.951-47.164-71.951s-13.851,15.39,11.244,49.463c17.265,23.442,35.513,30.08,53.048,46.2
		c34.291,31.525,25.179,35.917,25.587,34.214"/>
	<path id="_x32_._Cola_10_" fill="#19FFFC" d="M2721.664,4804.755c0,0-22.448-32-66.988-57.11
		c-31.512-17.765-58.054-46.653-58.054-46.653s17.558,31.269,56.969,54.457c40.572,26.533,56.744,58.395,56.744,58.395"/>
	<path id="_x32_._Cola_9_" fill="#19FFFC" d="M201.664,4804.755c0,0-22.448-32-66.988-57.11
		c-31.512-17.765-58.054-46.653-58.054-46.653s17.558,31.269,56.969,54.457c40.572,26.533,56.744,58.395,56.744,58.395"/>
	<path id="_x33_._Cola_10_" fill="#19FFFC" d="M2302.649,4804.804c-60.317-49.642-53.496-89.625-52.479-100.433
		c0.407-4.334,0.542-9.454,0.123-12.904c-1.113-9.164,0.066-24.092-15.937-27.057c0,0,16.739,4.243,10.138,43.459
		c-6.318,37.536,9.247,55.174,46.481,106.353"/>
	<path id="_x33_._Cola_9_" fill="#19FFFC" d="M622.649,4804.804c-60.317-49.642-53.496-89.625-52.479-100.433
		c0.408-4.334,0.542-9.454,0.123-12.904c-1.113-9.164,0.066-24.092-15.937-27.057c0,0,16.739,4.243,10.138,43.459
		c-6.318,37.536,9.247,55.174,46.481,106.353"/>
	<path id="_x34_._Cola_10_" fill="#19FFFC" d="M1880.365,4803.122c0,0-53.764-54.544-31.877-105.518
		c21.342-49.704-1.524-60.265-1.524-60.265s15.496,15.034-5.313,62.987c-16.351,37.678-2.245,60.874,27.205,111.703"/>
	<path id="_x34_._Cola_9_" fill="#19FFFC" d="M1040.365,4803.122c0,0-53.764-54.544-31.877-105.518
		c21.342-49.704-1.524-60.265-1.524-60.265s15.496,15.034-5.314,62.987c-16.351,37.678-2.245,60.874,27.205,111.703"/>
	<path id="_x35_._Cola_5_" fill="#19FFFC" d="M1462.649,4804.804c0,0-9.511-4.201-13.928-29.112
		c-6.987-39.414-6.29-89.823-59.135-110.286c0,0,10.818,6.418,19.059,14.375c9.592,9.262,23.253,18.702,27.608,68.744
		c3.014,34.63,9.373,58.856,13.381,64.904"/>
</g>
</svg>
