<?xml version="1.0" encoding="utf-8"?>
<!-- Generator: Adobe Illustrator 17.0.0, SVG Export Plug-In . SVG Version: 6.00 Build 0)  -->
<!DOCTYPE svg PUBLIC "-//W3C//DTD SVG 1.1//EN" "http://www.w3.org/Graphics/SVG/1.1/DTD/svg11.dtd">
<svg version="1.1" xmlns="http://www.w3.org/2000/svg" xmlns:xlink="http://www.w3.org/1999/xlink" x="0px" y="0px" width="2100px"
	 height="5040px" viewBox="0 0 2100 5040" enable-background="new 0 0 2100 5040" xml:space="preserve">
<g id="Capa_1">
	<rect id="Quadrado_transparente_3_" x="1261.362" opacity="0" fill="#19FFFC" width="420" height="420"/>
	<path id="_x31_._Cola" fill="#19FFFC" d="M215.793,183.5c0,0,1.151-41.933-24.844-84.403
		c-19.858-32.443-20.005-71.806-20.005-71.806s-4.84,36.497,18.519,76.5c23.359,40.003,12.853,79.816,12.853,79.816"/>
	<path id="_x32_._Cola" fill="#19FFFC" d="M636.657,185.049c0,0,7.843,3.303-21.654-70.16c-30.088-74.937,1.881-86.247,1.881-86.247
		s-20.006,5.334-17.579,47.582c1.67,29.066,16.862,42.796,21.102,66.914c7.835,44.573,4.065,41.163,8.45,41.658"/>
	<path id="_x33_._Cola" fill="#19FFFC" d="M1057.713,184.487c-28.428-73.25,4.119-106.507,11.674-114.235
		c3.043-3.113,5.645-6.362,7.759-9.12c5.881-7.671,13.033-21.314,1.243-32.534c0,0,13.141,13.229-14.508,42.255
		c-26.254,27.561-24.097,50.543-20.836,113.749"/>
	<path id="_x34_._Cola" fill="#19FFFC" d="M1472.487,185.05c0,0-19.327-77.71,31.197-106.575
		c46.968-26.832,32.254-50.488,32.254-50.488s5.408,22.033-38.834,49.875c-35.662,22.442-30.858,45.964-36.544,107.352"/>
	<path id="_x35_._Cola" fill="#19FFFC" d="M1897.183,184.394c0,0-10.084-10.537,1.783-33.691
		c18.258-35.622,46.198-76.998,13.091-122.989c0,0,5.561,11.283,8.122,22.448c2.981,12.996,11.277,28.337-12.39,72.643
		c-16.378,30.661-26.276,54.456-26.219,61.712"/>
	<path id="_x31_._Cola_1_" fill="#19FFFC" d="M226.092,606.68c0,0,19.602-37.087,15.102-86.678
		c-3.438-37.882,13.862-73.24,13.862-73.24s-20.502,30.58-17.273,76.791c3.229,46.211-23.821,77.255-23.821,77.255"/>
	<path id="_x32_._Cola_1_" fill="#19FFFC" d="M646.181,608.452c0,0,5.569,6.435,11.655-72.495
		c6.209-80.513,39.88-76.496,39.88-76.496s-20.3-4.077-36.833,34.877c-11.375,26.8-3.833,45.838-10.713,69.34
		c-12.714,43.434-14.584,38.707-10.871,41.092"/>
	<path id="_x33_._Cola_1_" fill="#19FFFC" d="M1067.377,608.415c6.95-78.265,50.859-93.67,61.055-97.253
		c4.107-1.443,7.879-3.204,10.996-4.741c8.671-4.274,21.125-13.339,15.522-28.619c0,0,5.924,17.681-31.72,31.461
		c-35.744,13.085-43.988,34.645-69.054,92.76"/>
	<path id="_x34_._Cola_1_" fill="#19FFFC" d="M1482.442,606.606c0,0,17.085-78.234,75.167-81.739
		c53.994-3.259,51.277-30.984,51.277-30.984s-4.908,22.15-56.905,27.52c-41.913,4.329-48.022,27.546-80.305,80.068"/>
	<path id="_x35_._Cola_1_" fill="#19FFFC" d="M1906.942,608.097c0,0-4.375-13.913,16.519-29.418
		c32.145-23.853,75.519-48.577,66.202-104.475c0,0-0.011,12.579-2.659,23.724c-3.082,12.973-2.438,30.401-43.278,59.645
		c-28.262,20.238-47.674,37.189-50.836,43.72"/>
</g>
<g id="Capa_2" display="none">
	<rect id="Quadrado_transparente" x="1.362" display="inline" opacity="0" fill="#4AA5B9" width="420" height="420"/>
	<rect id="Quadrado_transparente_1_" x="421.362" display="inline" opacity="0" fill="#4AA5B9" width="420" height="420"/>
	<rect id="Quadrado_transparente_2_" x="841.362" display="inline" opacity="0" fill="#4AA5B9" width="420" height="420"/>
	<rect id="Quadrado_transparente_4_" x="1681.362" display="inline" opacity="0" fill="#4AA5B9" width="420" height="420"/>
	<rect id="Quadrado_transparente_5_" x="1.362" y="420" display="inline" opacity="0" fill="#4AA5B9" width="420" height="420"/>
	<rect id="Quadrado_transparente_6_" x="421.362" y="420" display="inline" opacity="0" fill="#4AA5B9" width="420" height="420"/>
	<rect id="Quadrado_transparente_7_" x="841.362" y="420" display="inline" opacity="0" fill="#4AA5B9" width="420" height="420"/>
	<rect id="Quadrado_transparente_8_" x="1261.362" y="420" display="inline" opacity="0" fill="#4AA5B9" width="420" height="420"/>
	<rect id="Quadrado_transparente_9_" x="1681.362" y="420" display="inline" opacity="0" fill="#4AA5B9" width="420" height="420"/>
</g>
</svg>
